<svg xmlns="http://www.w3.org/2000/svg" width="144" height="142" viewBox="0 0 144 142">
  <defs>
    <style>
      .cls-1, .cls-2 {
        fill: #fff;
      }

      .cls-1 {
        fill-opacity: 0;
        stroke: #fff;
        stroke-linejoin: round;
        stroke-width: 5px;
      }

      .cls-3 {
        fill: #c8535a;
        fill-rule: evenodd;
      }
    </style>
  </defs>
  <circle id="countur" class="cls-1" cx="73" cy="71" r="65"/>
  <circle id="bg" class="cls-2" cx="73" cy="71" r="60"/>
  <path id="rocket" class="cls-3" d="M94.75,51.5A3.75,3.75,0,1,1,91,47.75,3.751,3.751,0,0,1,94.75,51.5Zm8.75-11.25A1.3,1.3,0,0,0,102.172,39c-13.594,0-21.055,3.125-30.82,12.852-2.227,2.266-4.531,4.844-6.875,7.617l-14.8.781a1.426,1.426,0,0,0-1.016.625l-8.75,15a1.309,1.309,0,0,0,.2,1.523l2.5,2.5a1.3,1.3,0,0,0,.9.352,1.086,1.086,0,0,0,.352-0.039l10.781-3.32L65.609,87.867l-3.32,10.781A1.351,1.351,0,0,0,62.6,99.9l2.5,2.5a1.374,1.374,0,0,0,.9.352,1.148,1.148,0,0,0,.625-0.156l15-8.75a1.427,1.427,0,0,0,.625-1.016l0.781-14.8c2.773-2.344,5.352-4.648,7.617-6.875C99.906,61.852,103.5,53.219,103.5,40.25Z"/>
</svg>
