<svg aria-hidden="true" style="position: absolute; width: 0; height: 0; overflow: hidden;" version="1.1" xmlns="http://www.w3.org/2000/svg" xmlns:xlink="http://www.w3.org/1999/xlink">
<defs>
<symbol id="icon-google" viewBox="0 0 60 60">
<title>google</title>
<path d="M5.967 16.767c0 4.482 1.497 7.716 4.446 9.615 2.418 1.56 5.22 1.794 6.678 1.794 0.354 0 0.639-0.018 0.837-0.030 0 0-0.462 3.012 1.77 5.988h-0.102c-3.867 0-16.479 0.807-16.479 11.181 0 10.548 11.583 11.085 13.908 11.085 0.183 0 0.291-0.006 0.291-0.006 0.024 0 0.189 0.006 0.474 0.006 1.491 0 5.346-0.186 8.925-1.929 4.644-2.25 6.999-6.177 6.999-11.655 0-5.292-3.588-8.442-6.207-10.746-1.599-1.407-2.982-2.619-2.982-3.798 0-1.2 1.011-2.103 2.286-3.246 2.067-1.845 4.017-4.476 4.017-9.45 0-4.371-0.567-7.308-4.062-9.171 0.363-0.186 1.653-0.321 2.289-0.411 1.893-0.258 4.662-0.552 4.662-2.097v-0.297h-13.797c-0.138 0.006-13.953 0.516-13.953 13.167zM28.239 43.806c0.264 4.218-3.345 7.329-8.766 7.722-5.505 0.405-10.035-2.073-10.299-6.288-0.129-2.028 0.762-4.008 2.505-5.589 1.767-1.599 4.194-2.589 6.834-2.784 0.312-0.018 0.621-0.036 0.93-0.036 5.097 0.003 8.547 2.997 8.796 6.975zM24.636 13.878c1.353 4.764-0.69 9.738-3.948 10.659-0.375 0.105-0.759 0.156-1.152 0.156-2.982 0-5.937-3.018-7.035-7.179-0.612-2.328-0.561-4.374 0.141-6.336 0.687-1.935 1.929-3.234 3.489-3.675 0.375-0.105 0.762-0.159 1.155-0.159 3.6 0 5.916 1.494 7.35 6.534zM48 24v-9h-6v9h-9v6h9v9h6v-9h9v-6h-9z"></path>
</symbol>
<symbol id="icon-facebook" viewBox="0 0 60 60">
<title>facebook</title>
<path d="M35.625 11.25h9.375v-11.25h-9.375c-7.237 0-13.125 5.888-13.125 13.125v5.625h-7.5v11.25h7.5v30h11.25v-30h9.375l1.875-11.25h-11.25v-5.625c0-1.016 0.859-1.875 1.875-1.875z"></path>
</symbol>
<symbol id="icon-twitter" viewBox="0 0 60 60">
<title>twitter</title>
<path d="M60 13.266c-2.203 0.984-4.582 1.641-7.066 1.934 2.543-1.523 4.488-3.937 5.414-6.809-2.379 1.406-5.016 2.437-7.816 2.988-2.25-2.391-5.449-3.879-8.988-3.879-6.797 0-12.305 5.508-12.305 12.305 0 0.961 0.105 1.898 0.316 2.801-10.23-0.516-19.301-5.414-25.371-12.867-1.055 1.816-1.664 3.938-1.664 6.187 0 4.266 2.168 8.039 5.473 10.242-2.016-0.059-3.914-0.621-5.578-1.535 0 0.047 0 0.105 0 0.152 0 5.965 4.242 10.945 9.879 12.070-1.031 0.281-2.121 0.434-3.246 0.434-0.797 0-1.559-0.082-2.32-0.223 1.57 4.887 6.117 8.449 11.496 8.555-4.219 3.305-9.516 5.273-15.293 5.273-0.996 0-1.969-0.059-2.941-0.176 5.461 3.504 11.93 5.531 18.879 5.531 22.641 0 35.027-18.762 35.027-35.027 0-0.539-0.012-1.066-0.035-1.594 2.402-1.723 4.488-3.891 6.141-6.363z"></path>
</symbol>
<symbol id="icon-linkedin2" viewBox="0 0 60 60">
<title>linkedin2</title>
<path d="M22.5 22.5h10.377v5.319h0.148c1.444-2.589 4.978-5.319 10.245-5.319 10.954 0 12.98 6.819 12.98 15.688v18.062h-10.817v-16.012c0-3.819-0.078-8.732-5.627-8.732-5.634 0-6.493 4.159-6.493 8.455v16.29h-10.813v-33.75z"></path>
<path d="M3.75 22.5h11.25v33.75h-11.25v-33.75z"></path>
<path d="M15 13.125c0 3.107-2.518 5.625-5.625 5.625s-5.625-2.518-5.625-5.625c0-3.107 2.518-5.625 5.625-5.625s5.625 2.518 5.625 5.625z"></path>
</symbol>
</defs>
</svg>
