<svg xmlns="http://www.w3.org/2000/svg" width="144" height="143" viewBox="0 0 144 143">
  <defs>
    <style>
      .cls-1, .cls-2 {
        fill: #fff;
      }

      .cls-1 {
        fill-opacity: 0;
        stroke: #fff;
        stroke-linejoin: round;
        stroke-width: 5px;
      }

      .cls-3 {
        fill: #c8535a;
        fill-rule: evenodd;
      }
    </style>
  </defs>
  <circle id="countur" class="cls-1" cx="72" cy="71" r="65"/>
  <circle id="bg" class="cls-2" cx="72" cy="71" r="60"/>
  <path id="m_wand" data-name="m wand" class="cls-3" d="M85.385,61.537l-4.18-4.18L92.65,45.912l4.18,4.18Zm17.46-11.445a2.446,2.446,0,0,0-.7-1.758L94.408,40.6a2.549,2.549,0,0,0-3.516,0L40.658,90.834a2.549,2.549,0,0,0,0,3.516l7.734,7.735a2.549,2.549,0,0,0,3.516,0L102.142,51.85A2.447,2.447,0,0,0,102.845,50.092ZM50.072,42.67L48.9,38.842,47.728,42.67,43.9,43.842l3.828,1.172L48.9,48.842l1.172-3.828L53.9,43.842ZM63.744,49L61.4,41.342,59.056,49,51.4,51.342l7.656,2.344L61.4,61.342l2.344-7.656L71.4,51.342ZM100.072,67.67L98.9,63.842,97.728,67.67,93.9,68.842l3.828,1.172L98.9,73.842l1.172-3.828,3.828-1.172Zm-25-25L73.9,38.842,72.728,42.67,68.9,43.842l3.828,1.172L73.9,48.842l1.172-3.828L78.9,43.842Z"/>
</svg>
