<svg xmlns="http://www.w3.org/2000/svg" width="144" height="142" viewBox="0 0 144 142">
  <defs>
    <style>
      .cls-1, .cls-2 {
        fill: #fff;
      }

      .cls-1 {
        fill-opacity: 0;
        stroke: #fff;
        stroke-linejoin: round;
        stroke-width: 5px;
      }

      .cls-3 {
        fill: #c8535a;
        fill-rule: evenodd;
      }
    </style>
  </defs>
  <circle id="countur" class="cls-1" cx="73" cy="71" r="65"/>
  <circle id="bg" class="cls-2" cx="73" cy="71" r="60"/>
  <path id="giars" class="cls-3" d="M70.747,71.061a10,10,0,1,1-10-10A10.019,10.019,0,0,1,70.747,71.061Zm30,20a5,5,0,1,1-5-5A5.01,5.01,0,0,1,100.747,91.062Zm0-40a5,5,0,1,1-5-5A5.01,5.01,0,0,1,100.747,51.061Zm-15,16.446a1.21,1.21,0,0,0-.938-1.172l-5.937-.9a25.193,25.193,0,0,0-1.328-3.2c1.094-1.523,2.266-2.93,3.4-4.453a1.332,1.332,0,0,0,.273-0.742c0-1.094-4.609-5.313-5.625-6.25a1.26,1.26,0,0,0-.82-0.313,1.2,1.2,0,0,0-.781.274L69.38,54.226a19.286,19.286,0,0,0-2.93-1.211l-0.9-5.976a1.212,1.212,0,0,0-1.172-.977H57.114A1.244,1.244,0,0,0,55.942,47a39.217,39.217,0,0,0-.9,6.016,20.365,20.365,0,0,0-3.008,1.25l-4.492-3.516a1.473,1.473,0,0,0-.82-0.274c-1.133,0-5.508,4.727-6.289,5.782a1.193,1.193,0,0,0-.274.781,1.454,1.454,0,0,0,.274.781c1.25,1.484,2.422,2.93,3.516,4.492A17.76,17.76,0,0,0,42.7,65.28l-6.055.938a1.218,1.218,0,0,0-.9,1.172v7.227a1.136,1.136,0,0,0,.937,1.133l5.938,0.938a20.782,20.782,0,0,0,1.367,3.2c-1.133,1.523-2.3,2.969-3.437,4.453a1.333,1.333,0,0,0-.273.742c0,1.133,4.609,5.312,5.625,6.25a1.259,1.259,0,0,0,.82.313,1.125,1.125,0,0,0,.781-0.273L52.114,87.9a19.258,19.258,0,0,0,2.93,1.211l0.9,5.977a1.212,1.212,0,0,0,1.172.977H64.38a1.244,1.244,0,0,0,1.172-.938,39.014,39.014,0,0,0,.9-6.055,16.691,16.691,0,0,0,3.008-1.211l4.492,3.516a1.471,1.471,0,0,0,.82.273c1.133,0,5.508-4.766,6.289-5.82a1.032,1.032,0,0,0,.273-0.742A1.35,1.35,0,0,0,81.06,84.3c-1.25-1.484-2.422-2.93-3.516-4.492a17.763,17.763,0,0,0,1.25-2.969l6.055-.938a1.218,1.218,0,0,0,.9-1.172V67.507Zm25,20.82c0-.586-5.039-1.133-5.82-1.211a10.555,10.555,0,0,0-1.172-2.031,36.475,36.475,0,0,0,1.992-5.391,0.339,0.339,0,0,0-.156-0.273c-0.469-.273-4.649-2.734-4.844-2.734l-0.234.078a35.055,35.055,0,0,0-3.594,4.375c-0.391-.039-0.781-0.078-1.172-0.078s-0.781.039-1.172,0.078c-0.391-.586-3.32-4.453-3.828-4.453-0.2,0-4.375,2.5-4.844,2.734a0.338,0.338,0,0,0-.156.273,38.108,38.108,0,0,0,1.992,5.391,10.544,10.544,0,0,0-1.172,2.031c-0.781.078-5.82,0.625-5.82,1.211V93.8c0,0.586,5.039,1.133,5.82,1.211a9.49,9.49,0,0,0,1.172,2.031,38.115,38.115,0,0,0-1.992,5.391,0.338,0.338,0,0,0,.156.273c0.469,0.273,4.648,2.774,4.844,2.774,0.508,0,3.438-3.907,3.828-4.493,0.391,0.039.781,0.079,1.172,0.079s0.781-.04,1.172-0.079c0.391,0.586,3.32,4.493,3.828,4.493,0.195,0,4.375-2.5,4.844-2.774a0.294,0.294,0,0,0,.156-0.273,36.44,36.44,0,0,0-1.992-5.391,9.5,9.5,0,0,0,1.172-2.031c0.781-.078,5.82-0.625,5.82-1.211V88.327Zm0-40c0-.586-5.039-1.133-5.82-1.211a10.549,10.549,0,0,0-1.172-2.031,36.476,36.476,0,0,0,1.992-5.391,0.339,0.339,0,0,0-.156-0.273c-0.469-.273-4.649-2.734-4.844-2.734l-0.234.078a35.057,35.057,0,0,0-3.594,4.375,8.809,8.809,0,0,0-2.344,0c-0.391-.586-3.32-4.453-3.828-4.453-0.2,0-4.375,2.5-4.844,2.734a0.339,0.339,0,0,0-.156.273,38.109,38.109,0,0,0,1.992,5.391,10.538,10.538,0,0,0-1.172,2.031c-0.781.078-5.82,0.625-5.82,1.211V53.8c0,0.586,5.039,1.133,5.82,1.211a9.49,9.49,0,0,0,1.172,2.031,38.1,38.1,0,0,0-1.992,5.391,0.339,0.339,0,0,0,.156.273c0.469,0.273,4.648,2.773,4.844,2.773,0.508,0,3.438-3.906,3.828-4.492a8.809,8.809,0,0,0,2.344,0c0.391,0.586,3.32,4.492,3.828,4.492,0.195,0,4.375-2.5,4.844-2.773a0.3,0.3,0,0,0,.156-0.273,36.471,36.471,0,0,0-1.992-5.391,9.5,9.5,0,0,0,1.172-2.031c0.781-.078,5.82-0.625,5.82-1.211V48.327Z"/>
</svg>
