<svg xmlns="http://www.w3.org/2000/svg" width="144" height="143" viewBox="0 0 144 143"><circle id="countur" cx="72" cy="71" r="65" fill-opacity="0" stroke="#fff" stroke-linejoin="round" stroke-width="5" fill="#fff"/><circle id="bg" cx="72" cy="71" r="60" fill="#fff"/><path id="m_wand" data-name="m wand" d="M85.385 61.537l-4.18-4.18L92.65 45.912l4.18 4.18zm17.46-11.445a2.446 2.446 0 0 0-.7-1.758L94.408 40.6a2.549 2.549 0 0 0-3.516 0L40.658 90.834a2.549 2.549 0 0 0 0 3.516l7.734 7.735a2.549 2.549 0 0 0 3.516 0l50.234-50.235a2.447 2.447 0 0 0 .703-1.758zM50.072 42.67L48.9 38.842l-1.172 3.828-3.828 1.172 3.828 1.172 1.172 3.828 1.172-3.828 3.828-1.172zM63.744 49L61.4 41.342 59.056 49 51.4 51.342l7.656 2.344 2.344 7.656 2.344-7.656 7.656-2.344zm36.328 18.67L98.9 63.842l-1.172 3.828-3.828 1.172 3.828 1.172 1.172 3.828 1.172-3.828 3.828-1.172zm-25-25L73.9 38.842l-1.172 3.828-3.828 1.172 3.828 1.172 1.172 3.828 1.172-3.828 3.828-1.172z" fill="#c8535a" fill-rule="evenodd"/></svg>