<svg xmlns="http://www.w3.org/2000/svg" width="140" height="140" viewBox="0 0 140 140"><circle id="countur" cx="69" cy="70" r="65" fill-opacity="0" stroke="#fff" stroke-linejoin="round" stroke-width="5" fill="#fff"/><circle id="bg" cx="69" cy="70" r="60" fill="#fff"/><path id="lightball" d="M78.86 56.138c0-4.956-5.849-7.144-10-7.144a1.429 1.429 0 0 0 0 2.858c2.366 0 7.143 1.205 7.143 4.286a1.429 1.429 0 0 0 2.857 0zm7.144 0a12.729 12.729 0 0 1-3.036 8.036c-.848.982-1.831 1.92-2.723 2.947-3.17 3.8-5.849 8.26-6.3 13.3H63.77c-.447-5.045-3.125-9.51-6.3-13.3-.893-1.027-1.875-1.965-2.724-2.947a12.729 12.729 0 0 1-3.036-8.036c0-8.929 9.063-14.287 17.145-14.287S86 47.209 86 56.138zm5.715 0c0-12.144-11.564-20-22.859-20S46 43.995 46 56.138A17.178 17.178 0 0 0 50.6 68.1c3.081 3.393 7.144 8.17 7.5 12.948a4.291 4.291 0 0 0-2.1 3.664 4.172 4.172 0 0 0 1.116 2.858A4.172 4.172 0 0 0 56 90.427a4.289 4.289 0 0 0 2.009 3.617 4.361 4.361 0 0 0-.58 2.1c0 2.9 2.277 4.286 4.867 4.286a7.167 7.167 0 0 0 13.126 0c2.59 0 4.867-1.384 4.867-4.286a4.361 4.361 0 0 0-.58-2.1 4.289 4.289 0 0 0 2.009-3.617A4.172 4.172 0 0 0 80.6 87.57a4.172 4.172 0 0 0 1.116-2.858 4.291 4.291 0 0 0-2.1-3.661c.357-4.778 4.42-9.555 7.5-12.948a17.178 17.178 0 0 0 4.603-11.965z" fill="#df5c64" fill-rule="evenodd"/></svg>