<svg aria-hidden="true" style="position:absolute;width:0;height:0" xmlns="http://www.w3.org/2000/svg" overflow="hidden"><defs><symbol id="icon-google" viewBox="0 0 60 60"><path d="M5.967 16.767c0 4.482 1.497 7.716 4.446 9.615 2.418 1.56 5.22 1.794 6.678 1.794.354 0 .639-.018.837-.03 0 0-.462 3.012 1.77 5.988h-.102c-3.867 0-16.479.807-16.479 11.181C3.117 55.863 14.7 56.4 17.025 56.4c.183 0 .291-.006.291-.006.024 0 .189.006.474.006 1.491 0 5.346-.186 8.925-1.929 4.644-2.25 6.999-6.177 6.999-11.655 0-5.292-3.588-8.442-6.207-10.746-1.599-1.407-2.982-2.619-2.982-3.798 0-1.2 1.011-2.103 2.286-3.246 2.067-1.845 4.017-4.476 4.017-9.45 0-4.371-.567-7.308-4.062-9.171.363-.186 1.653-.321 2.289-.411 1.893-.258 4.662-.552 4.662-2.097V3.6H19.92c-.138.006-13.953.516-13.953 13.167zm22.272 27.039c.264 4.218-3.345 7.329-8.766 7.722-5.505.405-10.035-2.073-10.299-6.288-.129-2.028.762-4.008 2.505-5.589 1.767-1.599 4.194-2.589 6.834-2.784.312-.018.621-.036.93-.036 5.097.003 8.547 2.997 8.796 6.975zm-3.603-29.928c1.353 4.764-.69 9.738-3.948 10.659a4.251 4.251 0 0 1-1.152.156c-2.982 0-5.937-3.018-7.035-7.179-.612-2.328-.561-4.374.141-6.336.687-1.935 1.929-3.234 3.489-3.675a4.275 4.275 0 0 1 1.155-.159c3.6 0 5.916 1.494 7.35 6.534zM48 24v-9h-6v9h-9v6h9v9h6v-9h9v-6h-9z"/></symbol><symbol id="icon-facebook" viewBox="0 0 60 60"><path d="M35.625 11.25H45V0h-9.375C28.388 0 22.5 5.888 22.5 13.125v5.625H15V30h7.5v30h11.25V30h9.375L45 18.75H33.75v-5.625a1.9 1.9 0 0 1 1.875-1.875z"/></symbol><symbol id="icon-twitter" viewBox="0 0 60 60"><path d="M60 13.266a24.29 24.29 0 0 1-7.066 1.934 12.376 12.376 0 0 0 5.414-6.809 24.771 24.771 0 0 1-7.816 2.988A12.308 12.308 0 0 0 41.544 7.5c-6.797 0-12.305 5.508-12.305 12.305 0 .961.105 1.898.316 2.801-10.23-.516-19.301-5.414-25.371-12.867a12.304 12.304 0 0 0-1.664 6.187 12.29 12.29 0 0 0 5.473 10.242 12.326 12.326 0 0 1-5.578-1.535v.152c0 5.965 4.242 10.945 9.879 12.07a12.339 12.339 0 0 1-3.246.434c-.797 0-1.559-.082-2.32-.223 1.57 4.887 6.117 8.449 11.496 8.555a24.687 24.687 0 0 1-15.293 5.273c-.996 0-1.969-.059-2.941-.176a34.818 34.818 0 0 0 18.879 5.531c22.641 0 35.027-18.762 35.027-35.027 0-.539-.012-1.066-.035-1.594a24.811 24.811 0 0 0 6.141-6.363z"/></symbol><symbol id="icon-linkedin2" viewBox="0 0 60 60"><path d="M22.5 22.5h10.377v5.319h.148C34.469 25.23 38.003 22.5 43.27 22.5c10.954 0 12.98 6.819 12.98 15.688V56.25H45.433V40.238c0-3.819-.078-8.732-5.627-8.732-5.634 0-6.493 4.159-6.493 8.455v16.29H22.5v-33.75zm-18.75 0H15v33.75H3.75V22.5zM15 13.125a5.624 5.624 0 1 1-11.25 0 5.624 5.624 0 1 1 11.25 0z"/></symbol></defs></svg>